<?xml version="1.0" encoding="UTF-8"?>
<svg xmlns="http://www.w3.org/2000/svg" viewBox="0 0 595 357">
  <path fill="#623804" d="M 0 0 h 595 v 51 H 0 z"/>
  <path fill="#d56300" d="M 0 51 h 595 v 51 H 0 z"/>
  <path fill="#fedd63" d="M 0 102 h 595 v 51 H 0 z"/>
  <path fill="#fee6b8" d="M 0 153 h 595 v 51 H 0 z"/>
  <path fill="#ffffff" d="M 0 204 h 595 v 51 H 0 z"/>
  <path fill="#555555" d="M 0 255 h 595 v 51 H 0 z"/>
  <path d="M -1 307 h 595 v 51 H -1 z M 97.9 25.4 c -5.7 0 -11.5 1.3 -16.3 4.4 C 60.2 43.6 90.1 49.3 95 52.1 c 4.7 2.7 22.4 22.9 29.7 -8.4 c 2.2 -9.7 -12.2 -18.3 -26.8 -18.3 m 45.4 11.2 c -17.7 1.9 -0.8 43 23.6 44.4 c 16.5 0.9 28.9 -39.3 -23.6 -44.4 m -94.4 8.9 C 33.2 45 42.7 74.3 68 84.6 c 5.1 2.1 14.2 -4.7 14.4 -16 c 0.1 -4.2 -7.1 -22.2 -33.5 -23.1 m 61 17.7 c -7.1 -0.1 -14.6 3 -22.8 11.5 c -28.9 30.3 13.8 35.5 10.6 51.9 c -9.7 48.5 -0.9 52.5 8.3 55.6 c 11.7 3.9 33.8 -33.4 43.1 -40.4 c 12.4 -9.4 77.9 -42.2 62.4 -58.8 c -22.3 -23.8 -27 7.3 -57.7 -1 c -14.6 -3.9 -28.3 -18.8 -43.9 -18.8 M 53.4 97.5 c -2.8 -0.1 -5.5 0.4 -8.1 1.6 c -11.5 5.2 10.8 36.5 20.9 37.4 c 12.4 1.1 17.4 -8.9 17.6 -14.7 c 0.3 -7.6 -15.4 -24 -30.4 -24.3 m 4 46.7 c -4.5 0.1 -8 1.2 -9.6 3.3 c -4.1 6.2 21.6 30.4 28.7 32 c 6.5 1.5 12.6 -13 11.4 -18.7 c -2.2 -10.4 -19.2 -16.7 -30.5 -16.6"/>
</svg>
